<svg xmlns="http://www.w3.org/2000/svg" xmlns:xlink="http://www.w3.org/1999/xlink" width="27" height="26" viewBox="0 0 27 26">
  <defs>
    <polygon id="bag-a" points="0 25.623 26.377 25.623 26.377 .251 0 .251"/>
  </defs>
  <g fill="none" fill-rule="evenodd">
    <path fill="#49C5E2" d="M6.5942029,14.3262638 L0,14.3262638 L0,18.0175101 C0,18.6950174 0.101362319,19.3487855 0.274318841,19.9746696 L6.5942029,19.9746696 L6.5942029,14.3262638 Z"/>
    <mask id="bag-b" fill="#fff">
      <use xlink:href="#bag-a"/>
    </mask>
    <polygon fill="#49C5E2" points="9.609 19.975 16.58 19.975 16.58 14.326 9.609 14.326" mask="url(#bag-b)"/>
    <path fill="#49C5E2" d="M19.5942029,14.3262638 L19.5942029,19.9746696 L26.1024928,19.9746696 C26.2754493,19.3487855 26.3768116,18.6950174 26.3768116,18.0175101 L26.3768116,14.3262638 L19.5942029,14.3262638 Z" mask="url(#bag-b)"/>
    <path fill="#E24949" d="M6.5942029,19.9747449 L0.274318841,19.9747449 C1.06110145,22.8234406 3.51866667,25.0172377 6.5942029,25.5707739 L6.5942029,19.9747449 Z" mask="url(#bag-b)"/>
    <polygon fill="#E24949" points="9.609 25.623 16.58 25.623 16.58 19.975 9.609 19.975" mask="url(#bag-b)"/>
    <path fill="#E24949" d="M19.5942029,19.9747449 L19.5942029,25.604687 C22.757913,25.1091797 25.2995072,22.8818464 26.1024928,19.9747449 L19.5942029,19.9747449 Z" mask="url(#bag-b)"/>
    <path fill="#51A55E" d="M19.6133449,8.88642319 L16.5988522,8.88642319 L16.5988522,5.61607536 C16.5988522,4.36393043 14.9657507,3.26552464 13.1039246,3.26552464 C11.2417217,3.26552464 9.60862029,4.36393043 9.60862029,5.61607536 L9.60862029,8.88642319 L6.59412754,8.88642319 L6.59412754,5.61607536 C6.59412754,2.65810435 9.51441739,0.251031884 13.1039246,0.251031884 C16.6930551,0.251031884 19.6133449,2.65810435 19.6133449,5.61607536 L19.6133449,8.88642319 Z" mask="url(#bag-b)"/>
    <path fill="#FFF" d="M9.60869565,14.3262638 L9.60869565,8.89226377 L6.5942029,8.89226377 L6.5942029,14.3262638 L6.5942029,19.9746696 L6.5942029,25.5669304 C6.97968116,25.6023507 7.38362319,25.6226986 7.81055072,25.6226986 L9.60869565,25.6226986 L9.60869565,19.9746696 L9.60869565,14.3262638 Z" mask="url(#bag-b)"/>
    <path fill="#E6E6E6" d="M0.0172956522,18.4847942 C0.0093826087,18.3713739 0.00674492754,18.2568232 0.00448405797,18.1418957 C0.00712173913,18.2572 0.0116434783,18.3709971 0.0172956522,18.4847942" mask="url(#bag-b)"/>
    <path fill="#FFF" d="M19.5942029,14.3262638 L19.5942029,8.89226377 L16.5797101,8.89226377 L16.5797101,14.3262638 L16.5797101,19.9746696 L16.5797101,25.6226986 L18.5783188,25.6226986 C18.9344058,25.6226986 19.2697681,25.6113942 19.5942029,25.5936841 L19.5942029,19.9746696 L19.5942029,14.3262638 Z" mask="url(#bag-b)"/>
    <polygon fill="#662D91" points="9.609 25.623 16.58 25.623 16.58 25.622 9.609 25.622" mask="url(#bag-b)"/>
    <path fill="#662D91" d="M0 18.0174725C0 18.0592986.00376811594 18.100371.00452173913 18.1421971.00188405797 18.0325449 0 17.9228928 0 17.8121101L0 18.0174725zM.0189536232 18.5243594C.0182 18.511171.0178231884 18.4979826.0174463768 18.4847942.0182 18.4979826.0182 18.511171.0189536232 18.5243594M6.5942029 25.5708116L6.5942029 25.5670435C6.58327536 25.565913 6.57272464 25.5647826 6.5617971 25.5636522 6.57272464 25.565913 6.58327536 25.5689275 6.5942029 25.5708116M19.5942029 25.6048754C19.6202029 25.6007304 19.6458261 25.5943246 19.6718261 25.5898029 19.6462029 25.5913101 19.6198261 25.5924406 19.5942029 25.5939478L19.5942029 25.6048754z" mask="url(#bag-b)"/>
    <polygon fill="#51A55E" points="9.609 14.326 16.58 14.326 16.58 8.892 9.609 8.892" mask="url(#bag-b)"/>
    <polygon fill="#51A55E" points="0 14.326 6.594 14.326 6.594 8.892 0 8.892" mask="url(#bag-b)"/>
    <polygon fill="#51A55E" points="19.594 14.326 26.377 14.326 26.377 8.892 19.594 8.892" mask="url(#bag-b)"/>
  </g>
</svg>